<mxfile host="app.diagrams.net" modified="2024-09-20T01:09:56.905Z" agent="Mozilla/5.0 (Macintosh; Intel Mac OS X 10_15_7) AppleWebKit/537.36 (KHTML, like Gecko) Chrome/128.0.0.0 Safari/537.36" version="24.6.4" etag="8i1ZkJQI_D44jaTZZcfT" type="github">
  <diagram name="Page-1" id="ng_z8dmwodjXb0Zo4jlt">
    <mxGraphModel>
      <root>
        <mxCell id="0" />
        <mxCell id="1" parent="0" />
      </root>
    </mxGraphModel>
  </diagram>
</mxfile>
